<?xml version="1.0" encoding="UTF-8" standalone="no"?><!DOCTYPE svg PUBLIC "-//W3C//DTD SVG 1.1//EN" "http://www.w3.org/Graphics/SVG/1.1/DTD/svg11.dtd"><svg width="100%" height="100%" viewBox="0 0 542 125" version="1.1" xmlns="http://www.w3.org/2000/svg" xmlns:xlink="http://www.w3.org/1999/xlink" xml:space="preserve" xmlns:serif="http://www.serif.com/" style="fill-rule:evenodd;clip-rule:evenodd;stroke-linejoin:round;stroke-miterlimit:2;"><path d="M5.302,77.615c1.164,-13.031 3.889,-14.254 7.172,-20.016c4.15,-7.282 -3.657,-12.745 14.94,-25.522c3.869,-2.658 8.771,-25.244 31.491,-21.852c9.533,1.423 9.262,9.628 17.284,4.084c13.967,-9.652 30.435,-0.498 35.906,14.975c4.543,12.848 14.764,7.17 14.182,17.31c-0.431,7.515 -0.17,7.541 3.477,14.214c17.576,32.156 -25.416,76.487 -53.018,43.875c-13.067,-15.438 -16.917,12.549 -38.111,11.237c-11.131,-0.689 -13.929,-9.919 -18.384,-0.798c-3.278,6.712 -20.399,0.47 -7.164,-10.25c5.558,-4.502 -6.511,-4.844 -7.774,-27.259Z" style="fill:#22afc4;"/><path d="M72.888,60.6c2.246,-3.296 2.236,-3.272 2.426,-3.56c0.114,-0.173 -0.067,-0.149 1.31,-2.239c12.483,-18.944 8.955,11.085 8.94,15.064c-0.066,17.771 17.015,-3.551 25.077,-10.243c8.116,-6.737 21.718,20.086 5.051,37.633c-19.463,20.492 -36.364,-3.96 -36.647,-4.142c-19.956,-12.865 -26.377,14.011 -40.453,12.375c-17.817,-2.071 -7.852,-11.586 -2.279,-20.529c5.526,-8.867 7.884,-4.821 17.949,-1.765c3.709,1.126 5.886,-3.105 18.626,-22.595Z" style="fill:#132431;"/><path d="M30.795,48.97c-13.136,2.013 2,-14.893 15.367,-8.238c0.688,0.342 15.645,7.788 9.035,-3.255c-5.751,-9.608 -17.437,-6.318 -11.646,-12.418c12.563,-13.233 23.26,2.878 24.356,4.529c7.383,11.12 12.599,-18.28 28.075,-6.208c10.343,8.068 3.594,13.078 10.925,18.609c10.208,7.701 0.557,8.982 -8.721,19.264c-8.135,9.014 2.022,-19.485 -8.229,-21.296c-13.444,-2.376 -13.185,1.233 -19.505,10.721c-15.284,22.946 -15.529,23.323 -17.884,23.411c-7.698,0.286 -12.418,-11.12 -20.996,2.459c-3.736,5.913 -9.672,19.654 -12.841,13.325c-3.35,-6.69 -9.876,-32.99 19.864,-31.078c4.267,0.274 7.073,-8.17 -7.8,-9.824Z" style="fill:#132431;"/><path d="M108.232,86.606c-13.467,7.439 -11.164,-2.068 -10.764,-2.864c2.299,-4.574 19.057,-20.123 16.567,-6.27c-0.63,3.505 -5.218,8.496 -5.803,9.134Z" style="fill:#25b1c3;"/><path d="M140.532,27.866c-4.526,14.951 -17.978,0.491 -10.351,-4.783c7.594,-5.251 10.11,3.904 10.351,4.783Z" style="fill:#26b1c4;"/><g transform="matrix(75,0,0,75,533.093262,85.416667)"></g><text x="150px" y="85.417px" style="font-family:'Roboto-BlackItalic', 'Roboto';font-weight:900;font-style:italic;font-size:75px;fill:#fff;">Tick<tspan x="292.749px " y="85.417px ">e</tspan>rBr<tspan x="433.411px " y="85.417px ">a</tspan>in</text></svg>